<svg width="225" height="225" viewBox="0 0 225 225" fill="none" xmlns="http://www.w3.org/2000/svg">
<g clip-path="url(#clip0)">
<path d="M56.5484 102.774H61.0645V107.29H56.5484V102.774Z" fill="white"/>
<path d="M65.5806 102.774H70.0968V107.29H65.5806V102.774Z" fill="white"/>
<path d="M74.6129 102.774H79.129V107.29H74.6129V102.774Z" fill="white"/>
<path d="M83.6451 98.2581H88.1613V102.774H83.6451V98.2581Z" fill="white"/>
<path d="M115.258 102.774H119.774V107.29H115.258V102.774Z" fill="white"/>
<path d="M106.226 98.2581H110.742V102.774H106.226V98.2581Z" fill="white"/>
<path d="M97.1935 102.774H101.71V107.29H97.1935V102.774Z" fill="white"/>
<path d="M169.346 53.2622C168.264 38.0533 155.576 26 140.097 26H126.548C111.072 26 98.3832 38.0489 97.2994 53.2544C93.1361 53.8145 89.3896 55.9822 86.8084 59.4145C84.7378 62.1698 83.6452 65.4511 83.6452 68.9032C83.6452 70.1524 84.6573 71.1613 85.9032 71.1613H88.3983L90.4061 89.2258H74.6129V59.871C74.6129 59.1466 74.2656 58.4641 73.6735 58.0374C73.0814 57.6129 72.3251 57.4927 71.6393 57.7276L44.5425 66.7598C43.6207 67.0697 43 67.9297 43 68.9032C43 69.8768 43.6207 70.7368 44.5447 71.0444L70.0968 79.5618V89.2258H67.8387C56.6344 89.2258 47.5161 98.3419 47.5161 109.548V114.065C47.5161 115.314 48.5283 116.323 49.7742 116.323H52.0323V120.839C47.0508 120.839 43 124.89 43 129.871C43 134.852 47.0508 138.903 52.0323 138.903V143.419H49.7742C48.5283 143.419 47.5161 144.428 47.5161 145.677V154.71C47.5161 160.935 52.5813 166 58.8065 166H117.516C123.741 166 128.806 160.935 128.806 154.71V152.452H155.903V161.484H133.323V166H158.161C159.407 166 160.419 164.991 160.419 163.742V152.452H167.194C168.345 152.452 169.312 151.587 169.438 150.442L178.247 71.1613H180.742C181.988 71.1613 183 70.1524 183 68.9032C183 60.9206 177.045 54.3162 169.346 53.2622ZM70.0968 63.0056V74.8031L52.3983 68.9032L70.0968 63.0056ZM126.548 30.5161H140.097C153.031 30.5161 163.675 40.4558 164.821 53.0968H160.286C159.157 42.9509 150.538 35.0323 140.097 35.0323V39.5484C148.043 39.5484 154.621 45.4504 155.722 53.0968H101.824C102.97 40.4558 113.614 30.5161 126.548 30.5161ZM99.4516 57.6129H167.194C172.647 57.6129 177.208 61.4995 178.256 66.6452H88.3851C88.7148 65.0145 89.4006 63.4819 90.4194 62.1268C92.576 59.259 95.8683 57.6129 99.4516 57.6129ZM93.9465 80.1936H172.701L170.944 96H152.848C148.937 89.2622 141.659 84.7097 133.323 84.7097C127.283 84.7097 121.599 87.0923 117.381 91.3053C114.689 89.9866 111.677 89.2258 108.484 89.2258H94.9487L93.9465 80.1936ZM124.29 120.839V116.323H126.548C127.794 116.323 128.806 115.314 128.806 114.065V109.548C128.806 106.484 128.104 103.585 126.885 100.977C128.569 99.2603 130.873 98.2581 133.323 98.2581C138.304 98.2581 142.355 102.309 142.355 107.29C142.355 112.272 138.304 116.323 133.323 116.323V120.839C140.795 120.839 146.871 114.762 146.871 107.29C146.871 99.8182 140.795 93.7419 133.323 93.7419C130.028 93.7419 126.906 94.9459 124.473 97.0474C123.543 95.86 122.495 94.7717 121.328 93.8169C124.613 90.8852 128.841 89.2258 133.323 89.2258C143.283 89.2258 151.387 97.3297 151.387 107.29C151.387 117.251 143.283 125.355 133.323 125.355C132.885 125.355 132.458 125.314 132.028 125.285C130.453 122.636 127.589 120.839 124.29 120.839ZM119.774 143.419H87.7092L90.9365 138.903H119.774V143.419ZM76.871 150.823L58.6775 125.355H95.0623L76.871 150.823ZM122.032 134.387H94.1637L100.615 125.355H124.29C126.781 125.355 128.806 127.38 128.806 129.871C128.806 132.362 126.781 134.387 124.29 134.387H122.032ZM154.862 100.516H170.443L168.937 114.065H154.862C155.535 111.923 155.903 109.65 155.903 107.29C155.903 104.931 155.535 102.657 154.862 100.516ZM52.0323 109.548C52.0323 100.835 59.1229 93.7419 67.8387 93.7419H108.484C117.2 93.7419 124.29 100.835 124.29 109.548V111.806H52.0323V109.548ZM56.5484 116.323H119.774V120.839H56.5484V116.323ZM47.5161 129.871C47.5161 127.38 49.5416 125.355 52.0323 125.355H53.1271L59.5783 134.387H52.0323C49.5416 134.387 47.5161 132.362 47.5161 129.871ZM56.5484 138.903H62.8055L66.0327 143.419H56.5484V138.903ZM124.29 154.71C124.29 158.444 121.251 161.484 117.516 161.484H58.8065C55.072 161.484 52.0323 158.444 52.0323 154.71V147.935H69.2566L75.033 156.022C75.4575 156.616 76.1411 156.968 76.871 156.968C77.6009 156.968 78.2845 156.616 78.709 156.022L84.4853 147.935H124.29V154.71ZM128.806 147.935V145.677C128.806 144.428 127.794 143.419 126.548 143.419H124.29V138.903C129.272 138.903 133.323 134.852 133.323 129.871C141.659 129.871 148.937 125.318 152.848 118.581H168.435L166.177 138.903H133.323V143.419H165.674L165.173 147.935H128.806ZM173.203 75.6774H93.4426L92.942 71.1613H173.703L173.203 75.6774Z" fill="#FEFEFE"/>
</g>
<path d="M65.1582 190.848L68.0293 175.672H72.4092L67.6777 197H63.2539L59.7822 182.732L56.3105 197H51.8867L47.1553 175.672H51.5352L54.4209 190.818L57.9365 175.672H61.6572L65.1582 190.848ZM78.8691 197H74.6211V179.935H78.8691V197ZM91.5693 192.415C91.5693 191.849 91.3301 191.395 90.8516 191.053C90.373 190.711 89.5576 190.403 88.4053 190.13C87.2529 189.856 86.2812 189.568 85.4902 189.266C84.709 188.953 84.0645 188.587 83.5566 188.167C83.0488 187.747 82.6729 187.264 82.4287 186.717C82.1846 186.16 82.0625 185.501 82.0625 184.739C82.0625 183.274 82.6729 182.068 83.8936 181.121C85.1143 180.174 86.6865 179.7 88.6104 179.7C90.71 179.7 92.4043 180.179 93.6934 181.136C94.9922 182.083 95.6416 183.382 95.6416 185.032H91.4082C91.4082 184.407 91.1543 183.885 90.6465 183.465C90.1484 183.045 89.4746 182.835 88.625 182.835C87.873 182.835 87.2627 183.001 86.7939 183.333C86.3252 183.665 86.0908 184.08 86.0908 184.578C86.0908 185.076 86.335 185.481 86.8232 185.794C87.3115 186.097 88.1221 186.39 89.2549 186.673C91.5303 187.171 93.1562 187.859 94.1328 188.738C95.1191 189.617 95.6123 190.804 95.6123 192.298C95.6123 193.821 95.0117 195.027 93.8105 195.916C92.6094 196.795 90.9688 197.234 88.8887 197.234C87.4727 197.234 86.1934 197.005 85.0508 196.546C83.9082 196.087 83.0244 195.433 82.3994 194.583C81.7842 193.733 81.4766 192.728 81.4766 191.565H85.7246C85.7246 192.474 86.0029 193.128 86.5596 193.528C87.126 193.929 87.9707 194.129 89.0938 194.129C89.8555 194.129 90.4561 193.973 90.8955 193.66C91.3447 193.348 91.5693 192.933 91.5693 192.415ZM113.396 197H109.162V190.35H102.409V197H98.1611V179.935H102.409V186.937H109.162V179.935H113.396V197ZM144.846 189.896H137.8V193.602H146.091V197H133.552V179.935H146.105V183.362H137.8V186.482H144.846V189.896ZM158.615 193.748H152.009L150.808 197H146.56L153.312 179.935H157.297L164.108 197H159.831L158.615 193.748ZM153.151 190.643H157.443L155.29 184.871L153.151 190.643ZM178.845 183.362H173.308V197H169.06V183.362H163.625V179.935H178.845V183.362Z" fill="#FFF5C0"/>
<path d="M130.944 197H116.325V194.1L123.225 186.746C124.172 185.711 124.87 184.808 125.319 184.036C125.778 183.265 126.008 182.532 126.008 181.839C126.008 180.892 125.769 180.149 125.29 179.612C124.812 179.065 124.128 178.792 123.239 178.792C122.282 178.792 121.525 179.124 120.969 179.788C120.422 180.442 120.148 181.307 120.148 182.381H115.9C115.9 181.082 116.208 179.896 116.823 178.821C117.448 177.747 118.327 176.907 119.46 176.302C120.593 175.687 121.877 175.379 123.312 175.379C125.51 175.379 127.214 175.906 128.425 176.961C129.646 178.016 130.256 179.505 130.256 181.429C130.256 182.483 129.982 183.558 129.436 184.651C128.889 185.745 127.951 187.02 126.623 188.475L121.774 193.587H130.944V197Z" fill="white"/>
<defs>
<clipPath id="clip0">
<rect width="140" height="140" fill="white" transform="translate(43 26)"/>
</clipPath>
</defs>
</svg>
