<svg width="132" height="23" viewBox="0 0 132 23" fill="none" xmlns="http://www.w3.org/2000/svg">
<path d="M18.1582 15.8477L21.0293 0.671875H25.4092L20.6777 22H16.2539L12.7822 7.73242L9.31055 22H4.88672L0.155273 0.671875H4.53516L7.4209 15.8184L10.9365 0.671875H14.6572L18.1582 15.8477ZM31.8691 22H27.6211V4.93457H31.8691V22ZM44.5693 17.415C44.5693 16.8486 44.3301 16.3945 43.8516 16.0527C43.373 15.7109 42.5576 15.4033 41.4053 15.1299C40.2529 14.8564 39.2812 14.5684 38.4902 14.2656C37.709 13.9531 37.0645 13.5869 36.5566 13.167C36.0488 12.7471 35.6729 12.2637 35.4287 11.7168C35.1846 11.1602 35.0625 10.501 35.0625 9.73926C35.0625 8.27441 35.6729 7.06836 36.8936 6.12109C38.1143 5.17383 39.6865 4.7002 41.6104 4.7002C43.71 4.7002 45.4043 5.17871 46.6934 6.13574C47.9922 7.08301 48.6416 8.38184 48.6416 10.0322H44.4082C44.4082 9.40723 44.1543 8.88477 43.6465 8.46484C43.1484 8.04492 42.4746 7.83496 41.625 7.83496C40.873 7.83496 40.2627 8.00098 39.7939 8.33301C39.3252 8.66504 39.0908 9.08008 39.0908 9.57812C39.0908 10.0762 39.335 10.4814 39.8232 10.7939C40.3115 11.0967 41.1221 11.3896 42.2549 11.6729C44.5303 12.1709 46.1562 12.8594 47.1328 13.7383C48.1191 14.6172 48.6123 15.8037 48.6123 17.2979C48.6123 18.8213 48.0117 20.0273 46.8105 20.916C45.6094 21.7949 43.9688 22.2344 41.8887 22.2344C40.4727 22.2344 39.1934 22.0049 38.0508 21.5459C36.9082 21.0869 36.0244 20.4326 35.3994 19.583C34.7842 18.7334 34.4766 17.7275 34.4766 16.5654H38.7246C38.7246 17.4736 39.0029 18.1279 39.5596 18.5283C40.126 18.9287 40.9707 19.1289 42.0938 19.1289C42.8555 19.1289 43.4561 18.9727 43.8955 18.6602C44.3447 18.3477 44.5693 17.9326 44.5693 17.415ZM66.3955 22H62.1621V15.3496H55.4092V22H51.1611V4.93457H55.4092V11.9365H62.1621V4.93457H66.3955V22ZM97.8457 14.8955H90.7998V18.6016H99.0908V22H86.5518V4.93457H99.1055V8.3623H90.7998V11.4824H97.8457V14.8955ZM111.615 18.748H105.009L103.808 22H99.5596L106.312 4.93457H110.297L117.108 22H112.831L111.615 18.748ZM106.151 15.6426H110.443L108.29 9.87109L106.151 15.6426ZM131.845 8.3623H126.308V22H122.06V8.3623H116.625V4.93457H131.845V8.3623Z" fill="#FFF5C0"/>
<path d="M83.9443 22H69.3252V19.0996L76.2246 11.7461C77.1719 10.7109 77.8701 9.80762 78.3193 9.03613C78.7783 8.26465 79.0078 7.53223 79.0078 6.83887C79.0078 5.8916 78.7686 5.14941 78.29 4.6123C77.8115 4.06543 77.1279 3.79199 76.2393 3.79199C75.2822 3.79199 74.5254 4.12402 73.9688 4.78809C73.4219 5.44238 73.1484 6.30664 73.1484 7.38086H68.9004C68.9004 6.08203 69.208 4.89551 69.8232 3.82129C70.4482 2.74707 71.3271 1.90723 72.46 1.30176C73.5928 0.686523 74.877 0.378906 76.3125 0.378906C78.5098 0.378906 80.2139 0.90625 81.4248 1.96094C82.6455 3.01562 83.2559 4.50488 83.2559 6.42871C83.2559 7.4834 82.9824 8.55762 82.4355 9.65137C81.8887 10.7451 80.9512 12.0195 79.623 13.4746L74.7744 18.5869H83.9443V22Z" fill="white"/>
</svg>
